<svg xmlns="http://www.w3.org/2000/svg" width="1669.513" height="59.053" viewBox="0 0 1669.513 59.053"><g transform="translate(-3.508 3.676)"><path d="M245.087-2.538l4.184-.158-8.143-.227,3.9-.166c3.914,0,8.986.25,11.746.118.337-.128-3.925-.169-5.013-.271-.962-.1-1.748-.208-2.347-.31,2.132,0,4.475.026,6.892.072,3.25.076,6.438.113,9.212.107,5.673.021,11.152,0,17.319,0l-2.052-.308,7.948.072c.842.023,1.846-.014,2.674.015,6.888.246,9.8.112,13.109,0,.678-.029,1.495-.05,2.429-.064,9.189.059,17.475.4,25.75.58,1.557.045,3.051.1,4.376.17,2.878.129,6.08.235,9.312.307s6.391.109,9.189.106c6.187,0,13.177.083,20.293.249,2.116.055,4.234.091,6.218.106s3.791.009,5.306-.018l4.811.176c2.085-.071,4.73-.11,7.773-.115s6.421.026,9.929.088c3.738.068,7.535.114,11.414.186,8.012.138,15.812.222,23.15.251,10.931.084,21.614.148,32.643.252,6.9.05,13.622.078,20.128.083,7.792.02,16.219.115,24.878.281-.409.156-4.207.11-6.755.1-8.219-.026-16.633-.093-25.092-.143-3.811-.02-7.516-.027-11.091-.022-5.986-.006-12.292-.048-18.816-.124-10.3-.083-20.28-.124-29.824-.12-.748.006-1.434.017-2.045.033-.128.013-.153.03-.073.049a4.4,4.4,0,0,0,.528.058c.266.019.609.037.994.053s.8.027,1.207.033c3.789.106,7.862.219,11.438.235.138,0,.285,0,.431.008s.285.009.409.015c8.005.223,14.583.185,20.818.221,10.349.1,20.329.144,29.783.137,1.428,0,2.971.013,4.572.038,9.9.1,19.159.111,27.342.033,3.367-.02,6.5-.064,10.118-.065,2.228,0,4.167-.031,5.7-.083a32.2,32.2,0,0,0,3.229-.218c1.525.048,3.078.092,4.63.129.93.021,1.823.027,2.495.016a5.354,5.354,0,0,0,1.134-.076,20.938,20.938,0,0,0-3.682-.2c1.107-.023,2.357-.036,3.722-.04,7.667-.024,15.89,0,24.491.085,6.675.1,12.008.018,19.034.154.845.023,1.534-.011,2.313-.019,2.019-.044,4.541-.053,7.338-.029s5.786.084,8.712.171c3.642-.239,11.514.034,17.327.059,1.792.122-.262.1-.351.134s0,0-.7-.02c-5.8.172-13.755.21-22.734.107-1.663,0-3.247.008-4.736.023-2.255.021-4.8.019-7.516-.006-2.975-.019-5.7-.01-8.058.026-1.356,0-2.5.018-3.335.053a5.682,5.682,0,0,0-1.419.149c.907.048,1.908.092,2.971.131,5.55.151,11.087.214,15.517.175,7.707-.066,16.882,0,25.078-.024C632.76.278,638.657.3,644.8.364c0,0-.16.061-.178.067.729.026,1.49.048,2.25.063l.071-.028c-.338-.027-.792-.052-1.316-.072L643.8.343c1.241-.013,2.4-.053,3.691-.029,2.722.045,5.328.064,7.654.056s4.327-.043,5.884-.1c2.757-.076,6.186-.111,10.064-.1q4.456-.013,8.579-.054a7.654,7.654,0,0,1,1.477-.1c-1.232-.044-2.513-.079-3.789-.106-5.555-.065-11.127-.125-16.584-.169-2.01,0-3.9,0-5.635.022-4.8.023-10.2-.01-15.877-.1l-1.681-.047c1.592-.147,7.08,0,9.3-.1,1.348,0,3.727.014,3.647-.012-.187-.035-.209-.067-.067-.095a7.279,7.279,0,0,1,.889-.065c.445-.015,1.014-.023,1.677-.022s1.388.009,2.135.025c6.248.085,12.137.109,17.3.07,1.957,0,4.149.026,6.093.032,1.187.008,2.277,0,3.2-.012,4.692-.117,11.007-.125,18-.024,3.38.036,6.533.041,9.308.014,1.97,0,2.806.078,4.212.117l5.959.082-7.654.1a36.62,36.62,0,0,0,5.608.329q5.857.033,11.376.03c2.717,0,4.963-.053,8.641.038.649.015,1.276.02,1.774.014,4.309-.08,9.5-.1,15.214-.054,2.958-.151,8,0,12.661.114,1.5-.113-1.223-.165-2.851-.235,3.9.007,7.832,0,11.856.02,1.21-.006,2.593,0,4.043.03s2.922.066,4.3.119c.672.034,1.485.059,2.268.071s1.477.009,1.935-.008c2.09-.049,5.435,0,7.165-.087.614-.019,1.49-.022,2.473-.008s2.01.045,2.9.085c-.97.013-1.832.033-2.566.06-2.646.088-1.672.234,1.686.447,5.154-.012,10.42-.008,15.2-.049,2.664-.036,5.928-.025,9.424.033s7.084.158,10.367.292c1.187.051,2.544.087,3.794.1s2.308,0,2.962-.031c.4-.038.529-.085.365-.139L838.8.8l.165-.061L843.81.735c2.562,0,5.234.014,7.658.01,3.558-.028,7.623-.012,11.936.046,3.98.06,7.894.1,11.7.135,3.687.031,6.36-.068,9.864-.084,2.655-.012,5.572,0,8.646.038,5.306.065,10.175.065,14.165,0a96.561,96.561,0,0,0,11.229.313l2.032-.027.556.075,1.552-.017c2.9-.015,5.8-.029,8.832-.035,4.207.033,8.757.12,13.2.254.841.023,1.988.1,2.726.166s2.353.251,3.54.373c-1.294.089-2.722.175-3.749.278-.1.018-.093.039.031.061s.351.046.672.069.725.044,1.174.062.938.033,1.423.042c.943.021,1.877.035,2.757.041,4.336.011,8.49,0,12.421-.024,1.432-.038,3.4-.042,5.581-.01s4.461.1,6.466.185c5.141-.053,11.118-.037,17.513.046,6.764-.051,14.934.052,21.254-.059-.147.056.507.151,1.414.207,1.441.084,3.069.162,4.821.23l13.364.133c.5.069,1.121.138,1.863.207.507.055,1.392.108,2.464.149s2.255.066,3.286.07c2.659.02,4.888-.025,8.058.087-4.883.106-11.465.092-18.581-.04-6.684-.1-13.115-.15-19.052-.148-1.957,0-4.536.005-5.146.066-1.356.171-4.9.144-9.037.113-3.251-.035-6.217-.031-8.663.011s-4.287.121-5.39.23c-.276.106.391.2,3.242.257l11.861.247q2.622-.048,4.968-.112c2.628-.057,5.879-.073,9.495-.046s7.494.1,11.341.2c1.966.055,3.931.109,5.359.083,1.25-.03,2.4-.066,3.447-.107.209-.028.294-.06.249-.095.756.016,1.512.037,2.246.063,5.853.294,10.389.289,14.507.213,1.116-.023,1.966-.059,3.1-.087s1.525-.065,2.553-.054c8.187.1,10.544-.226,17.442-.213a3.118,3.118,0,0,0,.6-.055c.062-.023-.027-.05-.253-.079-.489-.026-1.05-.048-1.641-.064s-1.183-.027-1.73-.03c-3.175-.041-5.977-.029-7.93.036-1.383.026-2.851.047-4.385.063l-6.911-.467c6.693.043,13.022.043,18.843,0,1.267-.024,3.42.018,5.208.026l13.146.044c2.7,0,5.008-.07,8.774.1,0,0,2.49.028,3.153,0s3.611-.168,5.368-.263c2.037.027,4.861.1,6.128.075,2.219-.06,4.14-.137,5.728-.229l7.943.132q-.013.175-.867.328c-.618.1-.6.215.062.342s1.939.261,3.736.39l7.84.684c1.281.046,2.646.077,3.909.088s2.362,0,3.153-.023c3.375-.079,7.156-.141,10.527-.22,4.354.121,3.233.317,6.4.489L1173.246,6c1.565.265,3.157.518-1.6.606-.943.015-.307.117-1.17.158,3.7.2,7.76.258,11.505.38,1.476.088,2.713.181,3.647.275,1.027.141,3.1.285,5.786.4s5.755.195,8.552.219c4.7.074,9.5.186,14.2.33,1.605.05,3.255.087,4.839.107s3.064.024,4.341.011c4.55-.023,8.4-.1,11.3-.229,2.869-.109,6.738-.161,11.252-.152,7.725.215,9.282.539,13.956.825l-8.072.032c-.293.111.24.252-3.069.249s-1.632.1-.56.211c.378.054,1.116.11,2.09.157s2.121.085,3.251.1l6.871.138c2.437.052,4.794.075,6.813.065s3.625-.052,4.639-.122c1.165-.066,2.771-.111,4.719-.131,2.481-.054,4.523-.134,6.048-.238l9.7.151a26.254,26.254,0,0,1,3.771-.206c2.028-.03,4.625-.014,7.356.044l6.538.092c7.267.1,8.863.068,10.994-.225l-8.721-.523c1.267-.138,2.49-.259,3.718-.38-2.175-.172-5.07-.336-8.4-.473q-4.663-.221-9.57-.428c-3.549-.141-7.3-.263-11.7-.421-.769-.051-1.886-.142-3.313-.23s-2.917-.168-4.465-.25c.294-.111.556-.211-.009-.341,2.713.041,5.515.113,8.156.21s5.034.214,6.964.343c.325.023.725.044,1.17.063s.925.034,1.414.045c4.763.079,7.04.244,9.37.446,1.57.1,3.593.2,5.79.263,4.212.117,8.334.268,12.363.4,1.232.043,2.513.079,3.789.106,4.212.084,8.445.2,12.5.348,1.321.037,2.588.086,3.7.143s2.028.12,2.677.184c-1.005.07-1.543.159-1.592.26-.173.067,2.784.2,4.181.3s-1.343.052-2.273.062c-3.82.019-4.527.059-2.241.278a10.072,10.072,0,0,1,1.49.2c.218.065.142.124-.218.173-.543.206-2.2.375-3.331.576,1.761.133,4.705.274,5.025.439a8.077,8.077,0,0,0,.952.113c.476.038,1.085.074,1.783.106,1.85.07,3.531.153,4.914.243s2.428.185,3.06.278c.2.038.7.079,1.4.114s1.521.061,2.33.074c.961.016,1.823.014,2.411-.006s.841-.054.725-.1c.022-.082-.1-.167-.382-.255.16-.061.325-.122-.316-.224,2.882.037,5.9.111,8.739.214s5.377.232,7.351.371c2.184.144,4.194.3,6.613.465-.5.189-.5.189,4.647.524l27.3.163,5.595.222c5.217.193,6.458.18,9.735.08l2.206-.094c4.634.129,9.971.278,12.866.036.943.158,1.557.211,1.343.234a68.813,68.813,0,0,1-7.116.584c-.849.036-1.445.091-2.437.123-3.189.182-3.927.462-2.068.785.925.143,2.268.289,3.985.433-2.513.2-5.839.367-9.9.495-3.442.1-6.275.231-8.419.392-1.926.163-4.812.286-8.485.361-1.868.032-3.229.095-3.949.183-.214.238.28.492,1.468.757a10.831,10.831,0,0,0,1.863.255c1,.087,2.335.171,3.9.246,0,0,.756.057,1.116.091.3.288-.827.541-3.313.744-.409.057-1.245.1-2.415.12s-2.633.021-4.234,0c-3.375-.034-6.529-.038-9.793-.058-3.518-.027-6.618-.006-8.97.062a28.086,28.086,0,0,0-4.4.324.661.661,0,0,1-.311.117q-.147.029-.16.061l7.5.472-8.481.188c-.5.189,3.571.3,5.612.443l-1.263.078c-1.623.044-3.811-.041-5.79-.09l-1.966-.055-.236.089c-1.223.121-5.683-.015-7.427.074s-.5.189,2.112.286c1.81.072,3.758.129,5.693.167s3.807.057,5.479.054c1-.01,1.819-.031,2.428-.064,3.518-.139,7.409-.258,11.639-.357,3.242-.089,7.3-.126,11.9-.111,1.348-.007,2.971.014,4.59.059s3.126.111,4.256.187l2.379.013s1.3.078,1.116.091c-.907.231.147.514,3,.806l-2.481.026c-3.545-.027-1.294.149-1.828.236-2.517-.016-5.79-.09-6.982.02l-1.788-.008.7.02.849-.036,3.335.164c-1.579.028-2.726.062-4.118.076-.774.013-1.388.036-1.806.067s-.636.071-.636.116c0,.069-.414.127-1.21.169s-1.943.065-3.335.069c-1.663,0-2.615.076-3.589.1l4.234.452s-2.108-.059-.961.021l.147-.056,2.566.113a36.464,36.464,0,0,0,4.234.052,13.263,13.263,0,0,1,1.365,0,20.891,20.891,0,0,1-2.4.166c-1.179.034-2.508.059-3.962.075,2.624.318,2.753.328-1.085.412s-2.517.211-5.728.229.44.233,2.588.275c1.6.028,3.22.071,4.763.126s2.975.122,4.189.195l-.645.245c-.947-.02-1.895-.047-2.811-.078-3.113-.134-5.942-.261-8.712-.183l1.321.186-9.664-.108a21.748,21.748,0,0,0,4.109.443,1.479,1.479,0,0,0-.663.25,15.444,15.444,0,0,1-1.734.029c-2.21.01-4.029.052-5.288.121s-1.921.164-1.935.275a36.221,36.221,0,0,0,5.279.284c5.31.019,11.056.092,16.917.214,3.576.016,4.078-.233,9.962-.063.116.115-.636.208-2.148.265s-3.691.075-6.222.051c1.441.255,9.4.322,9.753.588-1.984-.019-4.1-.063-6.151-.129s-3.954-.15-5.524-.244c-.342-.023-.765-.045-1.241-.063s-.978-.031-1.468-.039-.952-.01-1.339-.005-.689.014-.876.029c1.1.1,2.317.208,3.7.312s1.717.149,2.713.171c7.44.207,10.98.58,17.415.825,1.686.047,1.895.2.436.179-1.392-.017-2.655-.015-3.638.006a16.489,16.489,0,0,0-1.952.113c-1.081.061-2.424.11-4,.145,6.6.383,14.476.721,22.881.983,1.588.052,3.251.083,4.732.09,4.692,0,9.668.031,14.836.09,1.828.016,3.522.015,4.981,0,4.794-.046,8.6.054,12.079.336l5.75.447c-.187.072-1.156.153-1.9.264l4.5.239,34.3-.55,6.884.532,9.877-.03c.756.015,1.517.037,2.246.063,2,.157,3.558.308,5.724.458s6.039.168,8.739.345,5.4.18,8.739.285c.316.137-.009.26-.952.362-.307.117-2.006.189-2.3.3.036.112-.6.208-1.832.278s-3.042.112-5.248.122c-6.182.239-13.635.41-22.134.506-.747.007-1.365.023-1.819.048a3.586,3.586,0,0,0-.814.094c.013.109-.556.2-1.659.276s-2.717.122-4.723.144c-.534,0-.934.018-1.156.039-.76.014-1.316.04-1.61.076s-.316.082-.067.131a14.463,14.463,0,0,0,1.485.152c.725.05,1.641.1,2.659.133,1.476.061,2.984.118,4.514.174-.085.033-1.605.039-1.388.069.6.1.743.186.409.263a16.5,16.5,0,0,1-2.326.18l8.2.778c4.976.108,9.859.29,13.72.513,0,.036-.218.067-.645.089s-1.045.034-1.792.035c-2,.016-3.891.047-6.048.065-1.316.013-2.415.042-3.224.085a7.5,7.5,0,0,0-1.5.166l4.812.289c-1.539.07-2.686.1-3.7.148.578.091,1.57.185,2.9.275s2.962.173,4.772.243c.489.014.983.025,1.459.031s.921.007,1.312,0c3.731-.1,8.089.076,12.323.242s6.537.266,9.664.394l5.982.017c1.512.061,2.864.133,3.945.209s1.859.156,2.273.232c-.32.122-3.158.055-4.848.068-4.011.076-9.286.06-14.952-.046-1.4-.039-2.842-.007-4.207,0q-4.423.023-8.485.074-2.675.048-4.985.118c-.409.156,6.057.276,2.388.353,1.263.035,1.734.084,2.384.067,4.163.1,8.263.151,11.83.144,6.84-.021,14.6.049,22.663.207,8.694.163,17.037.232,24.335.2,2.784,0,5.888.032,9.09.1,3.776.092,7.525.149,11.007.169,1.152,0,2.437.016,3.745.046s2.615.071,3.8.123c-.1.039-1.232.067-.978.086,3.6.292,5.061.595,10.607.893,3.789.105,8.143.227,10.62.087s1.592-.26-3.34-.619c1.067-.005,2.357.012,3.642.047s2.477.088,3.375.148l4.269.268,3.842.256-.88.334c-.44.112.044.249,1.383.391.8.077,1.512.155,2.1.232,2.4.307,3.1.6,2.01.838-2.09.346-5,.665-8.69.952-3.9.279-6.039.632-9.25.937-1.641.139-3.633.263-5.955.372-4.4.242-9.228.472-13.649.719s-9.41.425-14.316.628c-7.307.242-15.205.451-23.651.625-5.226.153-10.593.3-15.428.478-5.71.2-12.417.341-19.955.424-6.657.1-12.608.246-17.731.438-.538.021-.961.047-1.263.078a56.589,56.589,0,0,1-7.36.392c.231.057.534.115.894.174.538.07.649.136.32.188a19.812,19.812,0,0,1-2.153.107c-3.082.048-5.644.131-7.574.243a6.516,6.516,0,0,0-1.281.12c-.129.05.045.109.52.17.418.063.449.121.089.166s-1.1.076-2.117.088q-3.916.089-8.365.143c-6.3.079-13.626.078-21.543,0-.841-.023-1.69.013-2.673-.015-5.6-.091-10.794-.1-14.965-.041-4.888.025-10,.02-15.156.032-7.445-.008-14.316.04-20.417.142-6.973-.1-10.891.073-16.78.076-5.434.018-10.584.06-15.4.126-7.769.088-15.508.165-23.166.269-7.182.049-13.8.143-19.728.281-2.272.062-6.386-.035-7.938.1s-4.67.115-7.2.158l-7.97.107c-1.37.025-2.873.041-4.5.048-7.4.009-12.537.182-19.412.218l-.7-.02c-12.208.258-26.177.4-41.5.421-8.948.079-18.736.075-28.231.133-2.268.116-7.614-.027-10.456.079s-7.485.037-11.145.054-7.245.061-11.158.06c-3.4,0-6.271.048-8.352.138-4.75.149-10.536.236-17.1.258-8.694.039-16.913.126-25.754.107.129.108-.413.2-1.57.267s-2.882.1-5,.111c-9.45.041-18.025.149-27.6.181h-2.562l-28.649.062c-7.716.012-15.152.032-23.023.046-2.949-.082-3.02.059-5.061.032a13.814,13.814,0,0,0-2.246-.062l-.222.083-32.692.111c-12.8.081-26.266.105-40.279.073-3.327.008-6.426.036-9.259.083q-3.942.026-8.2.022-5.75-.031-11.221-.032-14.369.048-30.121-.009c-10.487-.023-18.434.018-27.769.015-6.32,0-12.612-.017-19.159-.05-3.122-.015-6.973-.1-10.207-.129s-4.292-.03-4.719.018c-1.41.134-4.95.047-7.778.034-5.519-.022-6.3-.068-7.8-.414l6.769-.11c1.663-.035,3.749-.042,6.062-.018s4.776.076,7.147.153c.934.033,1.912.059,2.873.076s1.895.026,2.735.026c6.831-.019,13.569-.058,20.133-.09l.961-.021.058-.309c-.867-.03-1.766-.055-2.664-.074l-32.932-.2c-7.556-.049-15.4-.16-22.815-.206s-11.416-.073-17.167-.12c-2.428-.027-4.905-.062-7.414-.1q.22-.045.254-.095c.129-.05.307-.117-.761-.17-1.161-.076-2.713-.14-4.345-.181-1.534-.027-3.02-.042-4.4-.045-6.68-.026-14.307-.189-21.258-.455l-2.424.177c-10.438-.1-21.031-.2-31.936-.292-2.184-.026-4.474-.075-6.7-.145-2.384-.066-4.581-.205-7.093-.281-2.482-.055-4.95-.1-7.351-.127.649-.046,1.508-.082,2.544-.108,1.023-.009,1.766-.038,2.126-.081s.316-.1-.129-.162c-.774-.105-1.116-.2.574-.217,1.561-.024,2.682-.076,3.224-.15s.48-.166-.169-.267a2.866,2.866,0,0,1-.6-.172l-.7-.02c-2.312-.208-6.938-.283-10.26-.453-1.565-.049-3.189-.078-4.607-.081-3.673-.036-7.249-.053-11.043-.1-1.815-.021-3.714-.06-5.581-.114a23.233,23.233,0,0,1-4.5-.352c2.406,0,4.314-.036,5.4-.114s1.285-.191.56-.317c-1.983-.276-4.083-.568-13.057-.764,2.926-.01,5.746-.029,8.441-.058.783-.006,1.37-.026,1.681-.058s.333-.073.062-.119-.827-.094-1.588-.138-1.685-.081-2.659-.107c-4.741-.156-9.682-.261-14.276-.3-3.869-.018-7.365-.008-11.883-.008l-5.337-.149c.089-.033-.694-.079-.5-.1,1.356-.171,2.855-.339,4.394-.523-2.459-.1-4.59-.219-6.151-.346a11.551,11.551,0,0,1-2.659-.371c-.133-.035-.1-.067.1-.093s.56-.047,1.054-.06c1.405-.022,2.491-.065,3.167-.125s.938-.135.756-.22l-4.149-.313c-12.492-.223-24.758-.382-36.574-.475l-10.669-.07c-1.285-.084-.885-.12.325-.122s4.616.021,7,.034c2.055.016,3.878.006,5.3-.031a22.533,22.533,0,0,0,2.793-.179l-3.58-.357a6.92,6.92,0,0,1,2.366-.155c1.33-.008,2.3-.041,2.775-.1s.409-.125-.182-.2c-.089-.056.044-.107.4-.15,2.873,0,5.733,0,8.339-.019,1.214-.006,2.241-.026,3.006-.061a8,8,0,0,0,1.436-.138c.093-.055-.133-.118-.667-.184s-1.356-.132-2.406-.194c-4.083-.076-7.823-.077-10.389,0-.916.059-2.388.091-4.22.092s-3.94-.028-6.048-.085c-2.41-.065-4.816-.094-6.782-.081a38.778,38.778,0,0,0-3.954.152c-2.473-.033-4.67-.058-6.831-.095-2.557-.046-4.968-.06-6.982-.039-3.22.014-6.693.006-10.331-.025-10.5-.077-21.009-.149-31.171-.181-2.691-.009-5.017.016-7.676,0s-4.763.035-8.09-.076c-.632-.017-1.268-.028-1.859-.032s-1.121,0-1.543.009c-5.839.087-12.688.1-20.142.036-10.206-.016-20.791-.06-31.011-.069-3,.009-5.835.032-8.472.069-2.006.023-4.109.038-6.3.046-1.677.007-3.282-.014-3,.108a25.576,25.576,0,0,1-3.678.023c-4.976-.059-10.06-.139-15.2-.238-5.061-.108-10.024-.171-14.583-.185-3.3-.008-6.693.023-10.927-.143a3.867,3.867,0,0,1,1.245-.186c-3.454-.176-7.395-.327-11.5-.441s-8.247-.188-12.091-.216l-5.3-.333c-1.305-.039-2.638-.068-3.917-.084s-2.477-.019-3.522-.01c-.807,0-1.791-.007-2.772-.035s-1.89-.068-2.563-.114c-1.007-.059-2.237-.109-3.535-.145s-2.609-.056-3.766-.058c-3.643-.036-7.531-.12-11.268-.242a9.935,9.935,0,0,1-1.748-.213c-.17-.067.1-.125.788-.166a5.279,5.279,0,0,0,1.822-.27c.1-.106-.327-.224-1.25-.347-.473-.075-.631-.147-.464-.21a7.009,7.009,0,0,1,1.432-.157c2.906-.188,2.129-.293-2.626-.6-.772-.052-1.7-.1-2.734-.143s-2.138-.077-3.253-.1c-2.615-.051-5.194-.089-7.691-.113-1.4-.039-2.844-.008-4.462-.023a104.044,104.044,0,0,1-11.892-.463l-1.909-.191c-3.541-.154-7.413-.282-11.338-.375s-7.8-.148-11.36-.161c-1.413,0-3.038-.027-4.625-.075-5.165-.146-10.4-.247-15.345-.3-3.085-.028-6.409-.1-9.575-.207s-6.039-.245-8.273-.4c-2.007-.137-4.632-.26-7.51-.352-3.37-.094-3.682-.2-1.8-.289s5.033-.194,7.831-.284a9.156,9.156,0,0,0,1.742-.143c.166-.063-.113-.137-.8-.213-.444-.131-.521-.256-.229-.371.156-.048.048-.1-.316-.16s-.976-.118-1.794-.176-1.825-.112-2.951-.16-2.346-.086-3.577-.115c-5.195-.145-10.249-.285-15.547-.391-2.22-.05-4.438-.112-6.6-.184-4.424-.178-9.156-.326-13.923-.435-2.262-.049-4.474-.134-6.157-.237-5.307-.278-10.2-.57-14.581-.872-1.057-.094-2.439-.185-4.062-.268s-3.448-.157-5.364-.216c-1.544-.043-2.8-.138-3.992-.2-.865-.146-.958-.281-.269-.392a39.113,39.113,0,0,1,4.208-.244c1.963-.059,3.8-.127,5.5-.2,2.046-.058,4.478-.093,7.207-.1,3.231-.031,5.62-.121,6.856-.257-8.846-.246-17.257-.6-25.01-.517l-5.891-.224.63-.239c1.4-.132,1.839-.3,1.276-.484-.464-.09-.422-.172.121-.238s1.569-.112,2.973-.136c8.319-.24,17.939-.4,25.74-.675,2.446-.051,5.31-.074,8.47-.069,3.057-.016,2.929-.139-.589-.291q-2.963-.119-6.031-.228c-9.011-.012-12.681.351-22.964.25l-4.766-.479c-1.289-.007-2.54-.01-3.745-.009l-17.242.195c-1.436.01-2.554.043-3.227.1s-.873.124-.579.2c.117.1-.121.188-.7.267-.376.055-.135.128.669.2,1.813.17-.513.195-1.982.237-.375,0-.808,0-1.274,0s-.953-.015-1.437-.028-.952-.031-1.378-.05-.8-.042-1.106-.065c-2.588-.162-4.852-.332-7.4-.51,1.806-.171-.319-.451,2.5-.605.315-.031.441-.068.37-.111a3.13,3.13,0,0,0-.781-.134c-1.148-.119-1.694-.236-1.585-.338a7.711,7.711,0,0,1,2.209-.242l.161-.061a13.7,13.7,0,0,1-3.978-.606l-3.393-.142c-8.441-.343-8.456-.337-15.723-.324-1.465-.13.4-.15,1.792-.165l11.689-.146c7.642-.1,15.506-.165,24.043-.2s18.055-.16,26.878-.249c.446-.007.788-.021,1-.04s.276-.043.2-.07c-.351-.029-.81-.058-1.344-.083s-1.128-.047-1.739-.063c-2.808-.078-5.689-.129-8.682-.194L184.63,23.2l-1.716-.149c-1.117-.091-1.88-.2-3.366-.267-1.224-.049-2.554-.086-3.849-.107s-2.51-.026-3.516-.014c-2.791.03-5.316.073-7.982.112s-4.135.082-6.446.1q-7.044.013-13.6.069c-3.673.088-7.071.193-10.171.314-1.934.048-3.743.1-7.045.043-1.567-.056-2.918-.13-3.815-.209s-1.28-.157-1.082-.22a9.025,9.025,0,0,1,1.457-.115c.779-.025,1.809-.036,2.993-.03,3.315-.009,6.381-.04,9.135-.092,3.833-.094,8.5-.135,13.727-.119,1.773.014,2.961-.037,4.512-.053s2.864-.058,4.593-.027c5.371.078,7.946-.042,11.164-.119a10.237,10.237,0,0,0,1.951-.161c.186-.071-.123-.154-.895-.24-1.486-.172-3.3-.344-5.423-.515-1.091-.084-2.49-.164-4.085-.233s-3.345-.126-5.11-.166c-1.057-.105-1.621-.208-1.641-.3s.505-.171,1.527-.228c2.6-.131,4.914-.263,10.75-.19,2.744.028,5.326.033,7.644.016,5.141-.024,11.072.028,17.234.152,1.594.032,3.161.053,4.654.064,10.651.076,20.8.114,30.978.14,5.392.013,10.827.009,16.456.046,13.2.081,25.215.039,37.955.066,6.673.014,12.645-.041,17.6-.161.966-.04,1.795-.087,2.478-.14-3.286-.139-6.9-.249-10.483-.32s-7.033-.1-10-.083c-1.634.039-3.746.046-6.1.021s-4.859-.083-7.234-.165l6.9-.047c4.578-.022,9.268-.028,13.721-.06,7.074-.054,13.631-.14,20.956-.175,5.914-.032,11.207-.114,15.712-.243,3.255-.094,6.971-.161,11.075-.2a33.936,33.936,0,0,0,4.782-.213c-1.479-.125-3.392-.142-5.194-.145-10.8-.078-21.086-.092-30.636-.041-4.819,0-9.093.058-12.619.156-.864.042-3.072.022-4.845.008-5.558-.021-10.869-.015-15.871.018-6.916.054-14.618.041-22.807-.038-1.553-.1.234-.089.322-.122,6.343-.062,12.56-.134,19.029-.187,1.768-.019,3.658-.028,5.649-.028,7.432.033,13.626-.058,17.713-.259.2-.078,2.894-.069,4.082-.119a6.382,6.382,0,0,0,1.156-.153c-1.731-.144-3.688-.145-5.194-.145q-6.558.024-12.6.091c-3.737.043-7.873.054-12.3.034-3.265-.019-6.056.01-9.35,0-1.787-.017-3.637-.045-5.512-.082,2.088-.1,4.925-.162,8.313-.181,2.569-.06,5.781-.078,6.192-.234-1.213-.111-2.565-.113-3.65-.1-2.26,0-4.442.007-6.536.021-4.44.032-9.247.032-14.321,0-2.672-.011-5.207-.008-7.563.01-5.339.024-10.456.079-15.345.1-10.014.026-19.148.118-28.771.166-2.141.012-4.061.054-6.884-.018s-2.948-.082-3.282-.127c-.79-.075-1.029-.148-.668-.2.56-.052,1.651-.081,3.078-.081,8.6-.083,16.761-.2,24.425-.347,3.373-.03,6.328-.09,8.763-.18,1.931-.062,4.221-.1,6.8-.121q5.625-.067,11.712-.1c1.886-.011,3.489-.044,4.716-.1a17.208,17.208,0,0,0,2.427-.212l-4.969-.288q-1.171-.02-2.32-.035l-41.237.207-4.084.006c-4.476-.017-5.57-.06-9.816-.393,9.69-.078,17.307-.307,22.092-.663-1.15-.038-2.329-.071-3.51-.1-7.744-.084-15.064-.106-21.678-.066-3.929,0-7.969-.007-12.024-.012,1.186-.164,5.729-.115,8.69-.152,7.075-.058,13.331-.177,18.568-.355,1.806-.069,4.065-.113,6.674-.131s4.792-.048,6.353-.122a9.049,9.049,0,0,0,2.6-.3,6.448,6.448,0,0,1,1.582-.314c-1.426-.136-3.691-.266-6.369-.366s-5.585-.163-8.176-.177c-5.532-.056-11.269-.147-17.066-.272-2.888-.063-5.719-.1-8.311-.106-2.285-.005-4.884-.051-7.4-.13s-4.806-.186-6.526-.306c-2.322-.148-4.489-.3-6.656-.448s-4.681-.339-7.211-.523c-2.23-.029-4.4-.047-6.485-.055-1.621.007-3.513-.013-5.452-.058s-3.845-.112-5.492-.193c.966-.081,2.058-.152,3.208-.245-1.579-.123-2.724-.249-3.365-.37s-.764-.233-.363-.331a12.147,12.147,0,0,0-2.075-.356c-.764-.1-.907-.2-.411-.272a30.519,30.519,0,0,1,3.188-.152c1.961-.043,3.557-.107,4.723-.191.386-.022.582-.051.571-.086A1.711,1.711,0,0,0,128.1,8.8c-.405-.04-.984-.079-1.684-.114s-1.5-.064-2.323-.086c-2.526-.061-5.034-.1-7.381-.116q-6.064-.043-11.611-.055c-4.09-.011-8.639-.08-13.187-.2C87.84,8.12,84.189,8.018,82.2,7.8s-5.174-.21-7.622-.368c1.375-.142,3.819-.241,7.085-.286,2.137-.016,3.921-.059,5.238-.125a11.672,11.672,0,0,0,2.406-.259l-7.431-.44c-5.934-.207-9.218-.048-15.63-.131l6.607-.162c.133-.016.183-.035.147-.056-.641-.328-1.662-.4-8.416-.581l-3.79-.106-6-.125a17.253,17.253,0,0,1-1.927-.2c-.3-.066-.231-.126.207-.173.879-.079,1.146-.181.777-.295-.582-.076-.63-.145-.136-.2s1.5-.082,2.841-.086a11.577,11.577,0,0,0,1.733-.143c.579-.068,1.569-.12,2.9-.153s2.983-.046,4.832-.037c5.451.007,10.572-.019,15.272-.076l-.843-.023c4.9.051,9.478.057,13.516.018s9.239-.017,13.537-.047c3.5.007,6.163-.06,7.426-.187,1.223-.121,5.67-.093,9.076-.07,2.017.015,3.967.021,5.828.019,2.5-.027,5.621,0,8.849.073.969.023,1.923.035,2.771.035,8.206.031,16.4.068,24.492.085,1.869-.009,4.059.012,6.316.062.948.022,1.871.031,2.645.026,12.791-.05,27.224.077,39.764.009,1.52-.016,3.2-.02,5-.01,4.039.04,7.547.014,9.991-.074,1.319-.047,3.009-.073,4.964-.076s4.13.017,6.388.058c3.758.055,7.23.061,10.052.017,5.5-.04,11.287-.057,17.311-.049,1.846.007,3.468-.009,4.742-.046a23.743,23.743,0,0,0,2.6-.168c-1.48-.125-3.1-.14-4.633-.129-5.953-.028-11.892-.062-17.734-.076-5.229-.038-10.247-.05-14.978-.035-2.349.017-5.282-.022-8.156-.108-3.523-.109-7.151-.163-10.151-.151-2.224,0-4.572-.006-7.009-.028-1.56-.026-3.159-.07-4.633-.129-.585-.025-1.221-.047-1.869-.063s-1.292-.026-1.891-.03-1.143,0-1.593.008-.8.024-1.022.045c-2.257.17-7.3.083-11.624.064-6.475-.288-11.294-.117-17.346-.28-.479-.011-.95-.017-1.386-.019s-.826,0-1.148.008c-11.712.1-25.362.016-37.658.05-1.356,0-2.93-.012-4.543-.049-10.541-.244-20.676-.313-28.423-.194-.943.011-2.015.011-3.168,0-5.3-.1-10.363-.136-14.773-.113-6.913-.007-13.56,0-20.584-.024-4.842-.032-9.089,0-12.317.1-.1.039-2.253,0-3.9-.007-.947-.1-1.769-.187-2.745-.274-.873-.108-2.18-.216-3.834-.319s-3.614-.2-5.749-.276c-3.65-.1-4.015-.249-1.461-.3C37.974.94,46.252.867,55.618.9c7.829,0,15.8.01,23.738.028,4.631.016,9.513.05,14.019.056,1.52.013,3.082.033,4.669.058,1.947.037,3.838.057,5.57.06,5.562-.031,11.769,0,18.325.08,2.4.018,4.707.025,6.883.019,5.149-.023,10.73-.006,16.6.05,3.646.032,7.182.048,10.57.05,1.2,0,2.171-.023,3.323,0,10.145.211,17.328.059,26.458.14,4.438.023,8.677.023,12.659,0q11.656,0,23.93.069c10.806.074,20.821.048,31.139.079,2.037.006,4,.005,5.886,0,9.157-.057,19.1-.045,29.595.036,2.382.012,4.522,0,6.285-.042s3.112-.1,3.961-.186c.359-.057.127-.132-.654-.209-1.3-.1-2.757-.2-4.363-.289L235.8.584c-2.453-.016-4.845-.025-7.164-.026q-10.232,0-21.058-.073C200.462.441,193.66.449,186.761.436Q183.714.43,180.513.405C166.11.278,152.065.2,138.477.172c-5.716,0-11.892-.062-17.719-.081s-13.8-.026-20.71-.033h-21.4c-4.21,0-8.309.007-12.393.013-4.956-.407-6.664-.5-13.278-.68-2.262-.066-4.564-.1-6.634-.113-6.565.032-14.8-.1-21.029-.084-3.757-.009-6.944.036-9.237.131-1.99.074-4.266.133-6.792.175-6.92-.348-7.529-.574-2.324-.662,1.41-.02,3.353-.014,4.371-.057.584-.026,1.383-.041,2.331-.044s2.021.007,3.134.029c3.511.057,6.8.07,9.543.039,2.579-.042,5.741-.04,9.18,0,2.527.07,4.749-.029,6.934-.058s3.979-.08,7.393,0c.625.015,1.246.025,1.814.027s1.07,0,1.465-.013c3.666-.05,8.042-.044,12.77.015,7.252.059,14.057.061,20.177.007,3.664-.048,6.788-.132,9.249-.25.671-.039,1.667-.063,2.893-.069,6.159.025,12.845.117,19.629.272,2.556.062,5.108.111,7.6.146,5.127.078,10.086.121,14.729.13,6.747,0,13.773.031,21.014.09,4.468.032,8.774.044,12.866.036,4.206,0,8.7.021,13.369.074,4.648.043,8.743.018,11.793-.072,1-.049,1.814-.106,2.412-.172-6.8-.214-13.842-.322-19.7-.3-2.224-.014-4.07,0-6.413-.083l-.073.028c-.466.018-1.17.022-1.976.012s-1.66-.035-2.4-.068l.733-.278c4.46.013,8.79.012,12.969,0,3.522-.021,8.3.166,11.353.1,5.947.088,9.734-.033,15.067,0s11.207.151,16.54.186c4.654.019,9.172.023,13.53.013,1.5-.015,3.239-.012,5.1.011,2.611.042,5.041.049,7.008.02s3.4-.092,4.119-.182c-.681-.085-1.6-.194-2.657-.307,1.947-.093,4.9-.132,8.432-.112l4.985,0c1.321,0,2.331-.023,2.82-.07s.422-.114-.189-.185a163.5,163.5,0,0,0-16.739-.168l-9.212-.107Zm124.6.986-.7-.02ZM1517.675,36.623l-.16.061.173-.067,1.543.043.1-.039ZM1293.439,9.8c-2.179-.067-4.385-.128-6.6-.184-.583-.009-1.121-.011-1.583-.006s-.818.016-1.054.034a10.563,10.563,0,0,0,2.179.144c1.419.042,2.864.069,4.194.078s2.49,0,3.366-.028l1.268-.024ZM169.08,26.071c1.437.011,2.8.013,4.055.005,5.568-.054,10.9-.132,16.606-.182,7.2-.127,15.478-.179,24.517-.153,3.532.013,6.515-.029,8.6-.119,1.249-.048,2.862-.077,4.739-.083l23.9-.147c1.477-.03,2.754-.073,3.8-.127l-4.352-.121c-1.748-.007-3.251.011-4.357.052-1.188.069-3.2.1-5.627.076-2.453-.016-4.845-.025-7.164-.026-4.38,0-8.789.018-13.183.027-1.71.191-6.756.1-11.077.086l-3.338.009q-16.367.149-31.218.409c-1.911.029-3.556.076-4.887.139-.5.049-.662.11-.469.178l-.7-.02ZM656.339,44.359c2.651.013,5.4.04,8.232.08,2.175.041,4.3.066,6.284.074,11.131.043,22.73.142,34.64.3,1.557.023,3.051.035,4.43.034l9.748-.039c3.073-.022,3.131-.044.894-.339-1.854-.057-3.731-.11-5.617-.156-1.121-.031-2.944-.082-3.375-.034-2.6.131-7.351.046-11.349.018-11.567-.071-23.495-.177-35.174-.263-2.473-.021-4.861-.032-7.151-.032-1.423,0-2.717,0-3.834.025-.325,0-.6.008-.8.018a1.829,1.829,0,0,0-.369.039c-.044.016,0,.034.129.053s.329.038.6.057c.956.066,2.059.129,3.278.187ZM741.078,1.517l11.394-.035c1.365,0,2.526-.043,3.989-.026,7.8.053,15.027.039,21.365-.044,2.157-.034,4.683-.04,7.436-.02,8.432.061,16.384.063,23.642.007,4.692-.011,9.081-.049,13.106-.113a2.868,2.868,0,0,0,.569-.059c.062-.024,0-.051-.2-.08a2.418,2.418,0,0,0-.4-.057c-.218-.02-.5-.039-.845-.056S820.4,1,820,.989s-.814-.021-1.205-.025C813.706.878,808.881.848,804.7.876c-3.869.034-8.036.044-12.435.03-4.212,0-7.067.108-12.27.023C777.8.9,775.86.91,774.508.955c-2.726.074-6.529.079-10.731.012-2.517-.034-4.919-.048-7.12-.043-5.341.024-10.442.073-15.388.121-1.561.011-3.233.012-4.985,0L711.508.956C705.557.928,699.616.894,693.776.88,689,.851,684.548.86,680.59.907c-4.22.049-8.819.069-13.72.06C659.266.994,651.7,1,643.42,1q-7.918,0-16.2-.027c-2.793-.029-5.163-.005-6.653.066-.907.058-3.042.011-4.816,0-9.455-.13-18.323-.161-25.985-.091-.978.012-2.05.016-3.2.012-7.378,0-15.023-.018-22.1-.018-1.868.006-3.62.021-5.243.045a11.873,11.873,0,0,0,1.383.121c.716.038,1.592.067,2.455.081,6.7.112,13.164.171,19.132.174,9.926-.014,20.328.018,31.1.1,8.352.078,15.966.062,22.281-.048,4.932-.082,11.354-.051,18.154.088,2.909.066,5.737.093,8.09.076,2.264-.022,4.861-.017,7.645.016,5.862.062,11.5.091,16.8.086,5.186-.023,10.02-.085,15.348-.1s13.431-.008,20-.04S734.66,1.493,741.078,1.517ZM268.9-1.737a33.725,33.725,0,0,0,5.021.325c7.9.2,15.7.29,22.109.245,3.46-.063,8.074-.038,12.934.068,5.658.11,10.947.129,14.934.052.977-.013,1.725-.042,2.177-.083l.278-.106c-.419-.028-.933-.054-1.5-.076s-1.178-.039-1.78-.051l-26.156-.2L292.358-1.6C284.033-1.717,276.1-1.762,268.9-1.737ZM320.348.985c4.082.281,4.1.275,6.188.34,10.09.267,20.172.411,29.048.415,1.973,0,3.647-.028,4.881-.079a6.644,6.644,0,0,0,1.124-.061c.085-.032-.156-.072-.67-.111l-3.246-.2c-5.9-.086-11.706-.154-17.4-.2-6.626-.059-12.5-.061-19.367-.085Zm335.5,42.129a82.246,82.246,0,0,0,10.189.481c4.438.071,8.743.112,12.786.123,4.941.012,10.006.034,14.934.052,1.205.012,2.224,0,2.864-.029s.849-.08.592-.138c-.649-.063-1.659-.124-2.873-.173s-2.553-.083-3.8-.1l-2.691-.009c-3.264-.019-6.653-.048-9.806-.052-2.046.016-4.416,0-6.929-.036s-5.088-.106-7.538-.194ZM340.659-1.232c1.016.067,2.165.131,3.416.191,4.845.165,9.973.259,14.378.263,2.083.01,3.988-.026,6.108.027,3.8.071,7.49.109,10.859.111,0,0,.945-.015,1.255-.019l.645-.245c-1.6-.057-3.259-.1-4.914-.137-5.555-.065-11.014-.11-16.458-.16s-7.342-.073-10.9-.095C343.457-1.283,341.988-1.262,340.659-1.232ZM220.359,29.2l7.27.5c2.353.044,4.55.051,6.259.023a22.739,22.739,0,0,0,3.206-.183c.6-.042.659-.1.167-.174s-1.5-.14-2.8-.2c-1.258-.069-2.694-.13-4.22-.181s-3.108-.089-4.648-.114Zm60.528-2.495c-4.755-.085-9.3-.12-13.3-.1-2.516.05-5.925.034-9.528-.044-6.553-.156-12.87-.2-17.617-.12a3.983,3.983,0,0,1-.981.086c-.8.019,2.387.066,3.089.086,5.149.048,10.327.084,14.8.1,2.779,0,5.718.015,8.767.047,4.2.049,8.174.065,11.781.047,0,0,1.4-.015,2.967-.1ZM788.681.609c-2.273-.094-4.732-.171-7.2-.224S776.594.3,774.423.3c-1.668,0-3.015.02-3.829.071s-1.059.125-.68.21l5.194.145C779.489.723,783.225.678,788.681.609Zm425.133,7.952c-1.823-.076-3.829-.134-5.79-.168s-3.807-.041-5.315-.022c-.774.008-.249.095-.378.145-.089.011-.085.025,0,.041s.262.032.5.047.534.029.854.039.654.018.969.021c1.974.033,3.842.042,5.43.028s2.851-.052,3.674-.109ZM1242.3,9.647c-.28-.045-.881-.092-1.69-.132s-1.77-.071-2.708-.086c-1.659,0-3.166.01-4.465.037-1.414.02-.4.15,1.508.227.809.031,1.672.055,2.522.07s1.663.022,2.375.018,1.3-.016,1.721-.038a2.488,2.488,0,0,0,.712-.086ZM414.606-.755c-4.25-.16-7.521-.12-11.119-.184s-4.485-.071-4,.032,2.949.082,4.493.125c2.087.057,4.186.09,6.063.095S413.5-.706,414.606-.755Zm885.566,27.1c-2.25-.036-4.456-.061-6.582-.076a2.493,2.493,0,0,0-.516.057c-.062.023,0,.049.165.076,0,0,1.441.082,2.281.105A24.936,24.936,0,0,0,1300.172,26.344Zm318.145,14.922c1.525.108,2.237.182,3.456.233.56.018,1.138.031,1.694.038s1.072.008,1.512,0c.534-.031.663-.079.351-.133,0,0-1.552-.1-2.144-.1C1621.5,41.282,1619.864,41.269,1618.317,41.265ZM342.268-1.671c-3.229-.09-6.318-.176-8.554-.071C338.842-1.629,338.843-1.629,342.268-1.671Zm52.3,1.027c-3.261-.192-5.174-.21-6.739-.188A4.531,4.531,0,0,0,387.2-.8c-.074.017,0,.039.215.061s.555.044.971.062.885.031,1.335.038C391.426-.63,393.048-.633,394.571-.644Zm167.824.081c.071-.028.16-.061-.68-.085-.222-.012-.48-.022-.752-.03s-.547-.012-.792-.013l-.147.056ZM678.936,45.621l-1.877.025.845.023,2.224.014ZM1339.294,9.213a11.822,11.822,0,0,0-1.508,0,1.337,1.337,0,0,0-.267.025c-.031.011.009.023.107.036l1.4.039Zm-109.332.311c-.463,0-.876,0-1.223.008l-.089.033,1.405.039ZM277.179,17.478c-.542-.02-1.117-.036-1.685-.047l-.7-.02s.754.057,1.175.069S276.729,17.477,277.179,17.478Z" transform="translate(0)" fill="#054c78"/></g></svg>