<svg xmlns="http://www.w3.org/2000/svg" width="167" height="45" viewBox="0 0 167 45"><g transform="translate(-996 -38)"><rect width="167" height="45" transform="translate(996 38)" fill="#fff"/><g transform="translate(783.073 -66.986)"><path d="M220.984,110.991q3.238-.009,6.477,0,4.887,4.862,9.758,9.741c.214.264.589.462.666.8-1.743,1.8-3.553,3.538-5.3,5.332-1.352-1.251-2.58-2.631-3.944-3.868-.044,1.378-.023,2.757-.011,4.134-2.547.048-5.1.015-7.645.017Q220.975,119.07,220.984,110.991Zm94.1,6.48a13.5,13.5,0,0,1,7.677-1.3,10.2,10.2,0,0,1,6.134,2.757,6.97,6.97,0,0,1,1.917,3.781q-2.7.353-5.393.772a4.169,4.169,0,0,0-1.973-2.118,6.921,6.921,0,0,0-4.952-.187,1.767,1.767,0,0,0-1.287,1.447,2.038,2.038,0,0,0,.876,1.536,8.739,8.739,0,0,0,3.3,1.057c2.6.594,5.373.968,7.622,2.517a5.1,5.1,0,0,1,2.275,3.488,6.443,6.443,0,0,1-.471,3.79,7.876,7.876,0,0,1-4.18,3.826,14,14,0,0,1-7.482.749,10.653,10.653,0,0,1-5.832-2.657,9.959,9.959,0,0,1-2.462-4.615c1.85-.224,3.686-.539,5.532-.792a4.41,4.41,0,0,0,1.936,2.657,7.258,7.258,0,0,0,4.474.805,4.124,4.124,0,0,0,2.293-.858,1.565,1.565,0,0,0,.237-2.11,4.749,4.749,0,0,0-2.412-1.356c-2.834-.817-5.92-.976-8.491-2.544a5.863,5.863,0,0,1-2.758-3.734,6.057,6.057,0,0,1,3.417-6.914Zm19.459.273a13.3,13.3,0,0,1,8.157-1.571,10.737,10.737,0,0,1,4.994,1.787,7.551,7.551,0,0,1,2.986,4.118,3.67,3.67,0,0,1,.068.631c-1.807.234-3.606.515-5.408.773a3.919,3.919,0,0,0-2.391-2.3,6.831,6.831,0,0,0-3.544-.246c-.918.113-2.042.539-2.223,1.566-.1,1.13.974,1.93,1.955,2.2,2.409.657,4.915.956,7.281,1.776a7.25,7.25,0,0,1,4.267,3.133,6.409,6.409,0,0,1-1.929,7.933c-3.069,2.4-7.3,2.66-10.968,1.776a8.982,8.982,0,0,1-6.041-4.5,17.354,17.354,0,0,0,.434-2.671c1.382-.249,2.776-.415,4.163-.634a4.424,4.424,0,0,0,1.736,2.541,6.079,6.079,0,0,0,3.6.955,5.309,5.309,0,0,0,3.193-.745,1.588,1.588,0,0,0,.568-1.988,3.885,3.885,0,0,0-2.359-1.551c-2.263-.7-4.651-.926-6.885-1.73a7.66,7.66,0,0,1-3.837-2.813,6.368,6.368,0,0,1-.745-4.574A6.062,6.062,0,0,1,334.54,117.745Zm-72.165-1.316q4.511-.007,9.024,0c.648,2.693,1.43,5.352,2.121,8.033.713,2.523,1.305,5.081,2.08,7.584,1.364-5.195,2.74-10.386,4.068-15.592,2.98-.057,5.965-.029,8.947-.015q-.018,11.467,0,22.931c-1.849.035-3.7.012-5.547.012-.027-5.951.038-11.9-.032-17.854a10.816,10.816,0,0,0-.47,1.64q-1.348,4.844-2.69,9.69c-.627,2.169-1.14,4.37-1.808,6.525-1.713.011-3.424-.008-5.136.011-1.653-5.776-3.216-11.58-4.847-17.363-.033-.062-.1-.186-.13-.249-.082,2.19-.012,4.385-.035,6.577,0,3.672-.006,7.343,0,11.015-1.85.029-3.7.011-5.551.009q-.009-11.476,0-22.954Zm35.481-.008c2.009.012,4.018,0,6.027.011q4.4,11.479,8.806,22.952c-2.008,0-4.013.009-6.018,0-.515-1.376-.985-2.767-1.47-4.152-2.929,0-5.858.008-8.787,0-.47,1.388-.958,2.77-1.441,4.154-1.962.017-3.924.011-5.886,0,2.853-7.68,5.874-15.3,8.769-22.96Zm2.934,6.32c-.805,2.569-1.807,5.071-2.633,7.633,1.773.02,3.548.029,5.322,0C302.573,127.831,301.763,125.255,300.789,122.742Zm47.66-6.316c2.162,0,4.323-.006,6.486,0,1.242,2.142,2.473,4.29,3.716,6.43a23.374,23.374,0,0,0,1.441,2.356c.7-1.065,1.373-2.2,2-3.328.512-.808,1.008-1.627,1.461-2.471.622-.967,1.184-1.967,1.742-2.971,2.154-.048,4.31-.008,6.465-.021-2.906,4.7-5.865,9.361-8.8,14.037a.954.954,0,0,0-.137.607q0,4.156,0,8.314-2.792.009-5.584,0-.007-4,0-8.007a1.539,1.539,0,0,0-.156-.911c-2.856-4.693-5.784-9.343-8.633-14.039Z" transform="translate(-0.045 0)" fill="#054c78" fill-rule="evenodd"/><path d="M325.687,111.179c.171-.224.47-.171.718-.189,1.964.015,3.929,0,5.893.011q.027,8.084,0,16.169-3.773.034-7.547,0c-.032-1.414.014-2.826-.024-4.24-1.367,1.34-2.705,2.71-4.066,4.057-.221.261-.591.18-.89.2-3.337-.03-6.673.032-10.01-.033.119-.145.24-.288.369-.426q7.778-7.774,15.558-15.551Z" transform="translate(-75.414 -0.003)" fill="#fcd305" fill-rule="evenodd"/><path d="M220.947,227.919c2.545-.015,5.095-.053,7.639.02,0,1.37-.048,2.743.02,4.113,1.473-1.273,2.754-2.758,4.181-4.083a2.767,2.767,0,0,1,.837-.072c3.328.024,6.655-.021,9.982.023-5.211,5.261-10.48,10.466-15.7,15.722-.216.2-.43.486-.764.443-2.065,0-4.131.021-6.2-.015q-.036-8.075,0-16.149Z" transform="translate(0 -99.25)" fill="#f48221" fill-rule="evenodd"/><path d="M356.37,227.94q3.77-.029,7.541,0,.027,8.078,0,16.157c-1.912.032-3.825,0-5.737.018-.294-.029-.663.066-.878-.193-3.433-3.426-6.853-6.865-10.3-10.282q2.658-2.728,5.391-5.388c1.316,1.317,2.61,2.657,3.961,3.938C356.379,230.773,356.338,229.357,356.37,227.94Z" transform="translate(-107.029 -99.276)" fill="#26abe3" fill-rule="evenodd"/></g></g></svg>