<svg xmlns="http://www.w3.org/2000/svg" width="146.806" height="32.96" viewBox="0 0 146.806 32.96"><g transform="translate(-220.927 -110.986)"><path d="M220.984,110.991q3.152-.009,6.306,0,4.758,4.734,9.5,9.484c.209.257.574.45.649.779-1.7,1.753-3.459,3.444-5.162,5.191-1.316-1.218-2.512-2.562-3.84-3.766-.043,1.341-.022,2.684-.01,4.025-2.48.047-4.962.015-7.443.016Q220.976,118.857,220.984,110.991ZM312.6,117.3a13.144,13.144,0,0,1,7.474-1.263,9.933,9.933,0,0,1,5.972,2.684,6.787,6.787,0,0,1,1.866,3.681q-2.629.344-5.25.752a4.059,4.059,0,0,0-1.921-2.062,6.739,6.739,0,0,0-4.821-.182,1.721,1.721,0,0,0-1.253,1.409,1.984,1.984,0,0,0,.853,1.5,8.509,8.509,0,0,0,3.215,1.029c2.534.578,5.231.943,7.421,2.45a4.969,4.969,0,0,1,2.215,3.4,6.273,6.273,0,0,1-.459,3.69,7.669,7.669,0,0,1-4.069,3.725,13.629,13.629,0,0,1-7.284.729,10.371,10.371,0,0,1-5.678-2.587,9.7,9.7,0,0,1-2.4-4.493c1.8-.218,3.588-.525,5.386-.771a4.293,4.293,0,0,0,1.885,2.587,7.066,7.066,0,0,0,4.356.784,4.015,4.015,0,0,0,2.232-.835,1.524,1.524,0,0,0,.231-2.054,4.624,4.624,0,0,0-2.349-1.321c-2.759-.8-5.763-.95-8.267-2.477a5.708,5.708,0,0,1-2.685-3.635A5.9,5.9,0,0,1,312.6,117.3Zm18.945.266a12.953,12.953,0,0,1,7.942-1.529,10.454,10.454,0,0,1,4.862,1.74,7.351,7.351,0,0,1,2.907,4.009,3.572,3.572,0,0,1,.066.615c-1.759.228-3.51.5-5.265.753a3.816,3.816,0,0,0-2.328-2.24,6.65,6.65,0,0,0-3.45-.24c-.894.11-1.988.525-2.165,1.525-.1,1.1.949,1.88,1.9,2.146,2.346.64,4.786.931,7.089,1.73a7.059,7.059,0,0,1,4.155,3.05,6.24,6.24,0,0,1-1.878,7.724c-2.988,2.334-7.1,2.59-10.678,1.729a8.745,8.745,0,0,1-5.881-4.38,16.888,16.888,0,0,0,.422-2.6c1.346-.243,2.7-.4,4.053-.618a4.307,4.307,0,0,0,1.69,2.474,5.919,5.919,0,0,0,3.5.929,5.169,5.169,0,0,0,3.109-.725,1.546,1.546,0,0,0,.553-1.935,3.782,3.782,0,0,0-2.3-1.51c-2.2-.682-4.528-.9-6.7-1.684a7.458,7.458,0,0,1-3.735-2.738,6.2,6.2,0,0,1-.725-4.453A5.9,5.9,0,0,1,331.543,117.566Zm-70.261-1.281q4.392-.007,8.786,0c.631,2.622,1.393,5.211,2.065,7.821.694,2.456,1.271,4.947,2.025,7.384,1.328-5.058,2.668-10.112,3.96-15.18,2.9-.056,5.808-.028,8.711-.015q-.018,11.165,0,22.326c-1.8.034-3.6.012-5.4.012-.026-5.794.037-11.59-.031-17.383a10.526,10.526,0,0,0-.457,1.6q-1.313,4.716-2.619,9.434c-.61,2.112-1.11,4.255-1.76,6.353-1.668.01-3.334-.007-5,.01-1.609-5.624-3.131-11.274-4.719-16.905-.032-.06-.1-.181-.126-.243-.079,2.132-.012,4.269-.034,6.4,0,3.575-.006,7.149,0,10.724-1.8.028-3.6.01-5.4.009q-.009-11.173,0-22.348Zm34.544-.007c1.956.012,3.912,0,5.868.01q4.28,11.176,8.574,22.347c-1.954,0-3.908.009-5.859,0-.5-1.34-.959-2.694-1.431-4.043-2.852,0-5.7.007-8.555,0-.457,1.352-.932,2.7-1.4,4.044-1.91.016-3.821.01-5.731,0,2.778-7.477,5.719-14.892,8.537-22.354Zm2.856,6.153c-.784,2.5-1.759,4.937-2.563,7.431,1.727.019,3.455.028,5.181,0C300.419,127.386,299.631,124.879,298.682,122.431Zm46.4-6.149c2.1,0,4.209-.006,6.315,0,1.209,2.085,2.407,4.177,3.618,6.261a22.77,22.77,0,0,0,1.4,2.294c.685-1.037,1.337-2.14,1.946-3.24.5-.787.981-1.584,1.422-2.406.606-.941,1.153-1.915,1.7-2.893,2.1-.047,4.2-.007,6.294-.021-2.83,4.572-5.711,9.114-8.57,13.667a.929.929,0,0,0-.134.591q0,4.046,0,8.094-2.718.009-5.437,0-.007-3.9,0-7.8a1.5,1.5,0,0,0-.151-.887c-2.781-4.569-5.631-9.1-8.4-13.668Z" transform="translate(-0.045 0)" fill="#054c78" fill-rule="evenodd"/><path d="M325.267,111.174c.166-.218.457-.166.7-.184,1.912.015,3.825,0,5.737.01q.026,7.871,0,15.742-3.673.033-7.347,0c-.031-1.377.013-2.752-.024-4.128-1.331,1.3-2.634,2.638-3.959,3.95-.215.254-.575.175-.866.2-3.249-.029-6.5.031-9.746-.032.116-.141.234-.281.359-.415q7.573-7.569,15.148-15.14Z" transform="translate(-75.768 -0.003)" fill="#fcd305" fill-rule="evenodd"/><path d="M220.947,227.918c2.478-.015,4.96-.051,7.437.019,0,1.334-.047,2.671.019,4,1.434-1.24,2.681-2.685,4.071-3.975a2.7,2.7,0,0,1,.815-.071c3.24.024,6.48-.021,9.718.022-5.074,5.122-10.2,10.19-15.285,15.307-.21.2-.419.474-.744.431-2.01,0-4.022.021-6.033-.015q-.035-7.862,0-15.723Z" transform="translate(0 -99.716)" fill="#f48221" fill-rule="evenodd"/><path d="M356.122,227.94q3.671-.029,7.342,0,.026,7.864,0,15.73c-1.862.031-3.724,0-5.586.018-.287-.028-.646.065-.854-.188-3.343-3.336-6.672-6.684-10.026-10.011q2.588-2.656,5.249-5.246c1.281,1.282,2.541,2.587,3.856,3.834C356.131,230.7,356.092,229.319,356.122,227.94Z" transform="translate(-107.532 -99.742)" fill="#26abe3" fill-rule="evenodd"/></g></svg>